<?xml version="1.0" encoding="utf-8"?>
<!-- Generator: Adobe Illustrator 26.3.1, SVG Export Plug-In . SVG Version: 6.00 Build 0)  -->
<svg version="1.1" id="Layer_1" xmlns="http://www.w3.org/2000/svg" xmlns:xlink="http://www.w3.org/1999/xlink" x="0px" y="0px"
	 viewBox="0 0 548.19 357.29" style="enable-background:new 0 0 548.19 357.29;" xml:space="preserve">
<style type="text/css">
	.st0{fill:#141414;}
	.st1{fill:#FAFAF9;}
</style>
<path class="st0" d="M528.27,357.29H19.92c-11,0-19.92-8.92-19.92-19.92V19.92C0,8.92,8.92,0,19.92,0h508.35
	c11,0,19.92,8.92,19.92,19.92v317.44C548.19,348.37,539.27,357.29,528.27,357.29z"/>
<g>
	<path class="st1" d="M155.14,170.66c0,9.66,0.03,19.31-0.01,28.97c-0.02,4.76-0.64,5.33-5.38,5.33c-3.54,0.01-7.09-0.03-10.63,0
		c-2.74,0.02-4.28-1.26-4.28-4.02c0-17.23-0.85-34.45-0.45-51.7c0.15-6.32-0.54-12.77-0.45-19.19c0.19-14.37,0.03-28.74,0.34-43.11
		c0.16-7.23,0-14.45-0.03-21.67c-0.01-4.29,1.22-5.77,5.52-6.21c3.22-0.33,6.43-0.22,9.64,0.08c3.09,0.29,4.78,1.99,4.67,5
		c-0.27,6.93-0.1,13.89-0.15,20.81c-0.06,8.55-0.15,17.18,0.52,25.74c0.17,2.15-0.68,4.15-0.27,6.3c0.27,1.4,0.47,2.47,2.23,2.52
		c5.52,0.17,11.04,0.35,16.55,0.67c2.11,0.12,2.66-0.51,2.64-2.66c-0.15-16.43-0.15-32.87-0.19-49.31c0-0.86-0.01-1.72,0.01-2.58
		c0.14-5.44,1.06-6.37,6.46-6.33c3.11,0.02,6.24-0.08,9.32,0.28c3.5,0.41,4.92,2.1,4.92,5.58c0.01,13.53-0.07,27.06-0.13,40.58
		c-0.01,3.11,0.42,6.33-0.25,9.29c-1.12,4.92-0.87,10.08-0.5,14.7c1.12,14.02-0.41,28.03,0.73,42c0.49,5.99-0.16,12.02-0.2,18.02
		c-0.02,2.64-0.27,5.36,0.24,8.07c1.17,6.13-1.94,8.96-8.69,7.93c-1.7-0.26-3.25-0.32-4.96-0.04c-4.56,0.75-6.93-1.47-6.91-6.01
		c0.07-19.43,0.08-38.87,0.21-58.3c0.02-2.15-0.63-2.76-2.7-2.74c-5.48,0.05-10.96,0-16.43-0.21c-2.13-0.09-2.43,0.73-2.41,2.59
		c0.08,9.88,0.04,19.76,0.04,29.64C154.46,170.66,154.8,170.66,155.14,170.66z"/>
	<path class="st1" d="M378.62,196.82c-3.22-21.49-6.58-42.96-9.92-64.44c-3.59-23.06-7.21-46.11-10.8-69.17
		c-0.52-3.38-1.81-4.6-5.36-4.66c-3.11-0.05-6.23-0.01-9.34-0.01c-3.34,0-6.67-0.05-10,0.02c-3.03,0.06-4.99,1.37-5.44,4.65
		c-2.37,17.3-4.92,34.57-7.2,51.88c-1.46,11.04-2.52,22.16-4.2,33.14c-2.63,17.24-5.18,34.5-7.9,51.73
		c-0.43,2.72,1.26,4.87,4.07,4.96c3.76,0.12,7.52,0,11.28,0.02c2.29,0.02,3.52-1.03,3.89-3.33c0.54-3.37,1.37-6.7,1.85-10.09
		c0.98-7,1.76-14.03,2.78-21.03c0.17-1.18-0.43-3.16,2.13-3.12c6.48,0.12,12.97,0.07,19.45,0.02c1.35-0.01,1.91,0.47,2.02,1.82
		c0.41,4.7,0.85,9.4,1.36,14.09c0.62,5.64,0.75,11.35,1.99,16.91c0.86,3.82,2.18,4.74,5.98,4.76c2.05,0,4.09,0.01,6.13,0
		C378.96,204.92,379.73,204.24,378.62,196.82z M349.66,149.2c-4.18-0.18-8.37-0.12-12.55-0.02c-2.01,0.05-2.6-0.64-2.35-2.64
		c2.12-16.56,4.17-33.12,6.22-49.68c0.54-4.39,1-8.78,1.49-13.17c0.37,0.02,0.73,0.04,1.1,0.06c1.13,7.9,2.28,15.79,3.38,23.7
		c1.68,12.07,3.34,24.15,5,36.22c0.12,0.85,0.05,1.73,0.25,2.55C352.73,148.44,352.08,149.31,349.66,149.2z"/>
	<path class="st1" d="M449.87,82.21c-1.51-9.13-6.62-16.12-15.73-19.5c-7.92-2.93-16.2-2.7-24.44-2.94h-14.5
		c-2.63,0-4.26,1.02-4.31,3.94c-0.18,9.12-0.53,18.23-0.61,27.35c-0.27,28.32,0.09,56.65-0.66,84.97
		c-0.21,7.93-0.04,15.86,0.06,23.79c0.04,2.78,0.78,4.3,3.49,4.7c3.95,0.59,7.94,0.36,11.89,0.17c1.95-0.1,4.59-0.3,2.61-3.58
		c-0.26-0.43-0.2-0.98,0.38-1.37c1.95-1.35,0.95-2.91,0.32-4.49c-0.17-0.41-1.3-1.3-0.23-1.33c2.46-0.07,1.34-1.75,1.39-2.68
		c0.55-9.05-0.75-18.08-0.18-27.15c0.37-5.77,0.12-11.59,0.04-17.39c-0.02-1.68,0.23-2.58,2.23-2.45c2.89,0.19,5.8,0.1,8.7,0.11
		c14.39,0.04,23.34-6.31,27.25-17.99C452.41,111.89,452.33,97.01,449.87,82.21z M431.53,102.4c-0.16,5.06,0.26,10.49-1.3,15.87
		c-0.83,2.85-2.31,4.72-4.82,5.98c-4.76,2.4-9.82,1.48-14.8,1.3c-1.57-0.05-1.1-1.29-1.09-2.17c0.23-13.72,0.51-27.45,0.68-41.18
		c0.05-4.05,0.76-4.96,5.27-4.02c1.82,0.38,3.62,0.36,5.43,0.41c4.94,0.12,7.42,1.87,9.15,6.55
		C432.07,90.63,431.42,96.36,431.53,102.4z"/>
	<path class="st1" d="M217.05,178.02c-1.74-0.87-2.35-1.86-2.38-3.44c-0.12-6.18-0.7-12.37-0.47-18.54
		c0.34-9.22,0.07-18.42-0.15-27.61c-0.33-14.45,0.52-28.9-0.5-43.34c-0.43-6.08-1.55-12.1-1.35-18.23c0.07-2.2-0.05-4.64,2.22-5.61
		c2.42-1.04,5.11-2.26,7.79-0.34c0.26,0.19,0.72,0.88,0.88,0.31c0.74-2.75,2.89-1.29,4.26-1.32c10.4-0.24,20.8-0.31,31.2-0.37
		c4.73-0.03,5.86,1.12,5.92,5.85c0.03,2.69,0.12,5.38-0.06,8.06c-0.19,2.8-1.55,4.46-4.71,4.49c-7.84,0.07-15.68,0.35-23.52,0.51
		c-2.77,0.06-5.15,2.63-4.65,5.27c2.06,10.8,2.19,21.71,1.88,32.63c-0.08,2.83,0.73,3.54,3.41,3.39c5.36-0.31,10.74-0.42,16.11-0.46
		c4.01-0.03,5.63,1.65,5.74,5.65c0.07,2.57,0.05,5.15,0.01,7.73c-0.05,3.41-1.46,5.07-4.79,5.16c-3.64,0.1-7.3,0.28-10.94-0.21
		c-2.53-0.34-5.06,0.3-7.56,0.49c-2.05,0.16-1.89,3.02-1.45,4.18c1.19,3.11-1.14,6.11,0.16,9.1c0.12,0.28-0.16,0.82-0.39,1.14
		c-0.48,0.65-1.9-0.45-2,0.98c-0.11,1.68,1.37,0.28,1.83,0.89c0.12,0.16,0.38,0.44,0.35,0.48c-2.98,3.5,1.32,6.8,0.27,10.27
		c-1.81,5.97,1.01,11.84,0.44,17.79c-0.23,2.41,0.57,3.24,3.02,3.03c8.05-0.7,16.11-0.16,24.16-0.03c3.65,0.06,6.51,4.35,5.15,7.76
		c-0.11,0.27-0.36,0.52-0.6,0.68c-0.57,0.37-1.64-1.52-1.81,0.28c-0.1,1.02,1.1,1.09,1.9,1.34c0.18,0.06,0.45,0.25,0.46,0.39
		c0.04,2.11-1.02,4.05-0.83,6.27c0.06,0.72-1.84,1.34-3,1.47c-1.81,0.19-3.64,0.18-5.47,0.18c-12.25,0.01-24.5,0.01-36.75,0
		c-5.06-0.01-6.12-1.18-6.08-6.31c0.04-5.84-0.03-11.69,0-17.53C214.74,179.22,214.37,177.54,217.05,178.02z"/>
	<path class="st1" d="M99.58,86.1c1.54,1.1,1.85,2.6,1.85,4.44c0.04,9.75,0.1,19.51,0.27,29.27c0.14,7.68,0.89,15.44-0.35,23.14
		c-0.16,0.99,1.62,2.54-0.89,2.77c-0.02,0-0.07,0.28-0.02,0.4c1.73,3.94,2.13,8.67,0.95,12.39c-0.23,0.73-0.46,1.35-0.08,2.1
		c1.13,2.21,1.24,4.73,0.71,6.93c-0.78,3.23,0.24,6.41-0.41,9.7c-0.43,2.19,0.44,5.01,0.7,7.54c0.5,4.77-0.25,9.48,0.28,14.23
		c0.44,3.98-1.01,5.05-5.09,4.38c-1.73-0.29-3.02,0.06-4.54,0.82c-2.25,1.11-4.8,1.03-7.18,0.36c-1.54-0.43-2.55-1.38-2.72-3.41
		c-0.39-4.72-1.05-9.55-0.23-14.13c0.53-2.99,0.14-5.66,0.14-8.5c0-5.97-0.68-11.91-0.61-17.84c0.07-5.72,0.55-11.44-0.44-17.12
		c-0.4-2.29,1.74-3.98,1.06-6.31c-1.38-4.72-1.1-9.59-1.02-14.43c0.09-5.03,0.53-10.13,0.37-15.09c-0.31-9.46,1.08-18.91-0.04-28.36
		c-0.19-1.6-0.91-1.6-2.06-1.6c-4.99,0.02-9.98,0.04-14.97,0c-3.95-0.03-4.68-0.98-4.39-4.84c0.24-3.16,0.82-6.29,0.18-9.52
		c-0.34-1.73,1.29-2.5,2.8-2.99c3.64-1.17,7.46-0.86,11.16-1.02c14.36-0.6,28.74-1.14,43.12-0.87c4,0.08,5,1.4,4.71,5.41
		c-0.19,2.64-0.24,5.31-0.19,7.96c0.07,3.57-1.22,5.14-4.8,5.21c-4.51,0.08-9.03,0.13-13.54-0.03c-2.05-0.07-2.5,0.61-2.48,2.55
		C101.93,84.38,101.82,84.38,99.58,86.1z"/>
	<path class="st1" d="M463.71,150.09c0.33-8.58,0.28-17.18,0.24-25.74c-0.04-9.43-0.02-18.88-0.19-28.32
		c-0.02-0.97-1.1-3.32,1.8-2.44c0.22,0.07,0.92-0.53,0.51-0.92c-3.23-3.1-2.42-7.23-2.48-10.93c-0.11-6.01,0.21-12.02-0.09-18.04
		c-0.15-2.94,1.4-4.42,4.22-4.49c3.76-0.09,7.52-0.1,11.28-0.01c3.34,0.07,4.46,1.38,4.67,4.8c0.37,6.02-0.77,11.98-0.53,18.01
		c0.38,9.43,0.41,18.88,0.68,28.32c0.65,22.34,0.02,44.67-0.38,67c-0.12,7.07,0.16,14.14,0.2,21.22c0.02,4.88-1.39,6.28-6.31,6.36
		c-3,0.05-6.03-0.25-8.99,0.11c-2.64,0.32-3.51-1.02-3.94-3.07c-0.35-1.67-0.64-3.4-0.64-5.1c-0.02-4.88-0.22-9.78-0.13-14.62
		C463.85,171.51,463.4,160.8,463.71,150.09z"/>
	<path class="st1" d="M152,275.24c1.16-7.45,2.29-14.91,3.5-22.36c1.01-6.23,2.18-12.43,3.15-18.66c0.3-1.9,1.22-2.49,3.02-2.47
		c11.24,0.12,9.37-1.08,9.24,8.77c-0.24,17.73,1.05,35.43,0.82,53.16c-0.04,2.95-0.61,4.32-3.86,4.21
		c-4.65-0.16-5.15-0.21-4.98-4.09c0.48-10.8-0.14-21.59-0.31-32.38c-0.02-0.99,0.23-2.05-0.81-3.83c-0.89,5.06-1.6,9.27-2.37,13.48
		c-1.5,8.28-3.05,16.56-4.54,24.84c-0.32,1.79-1.59,2.12-3.05,2.2c-2.08,0.11-3.55-0.69-3.94-2.88c-0.91-5.14-1.77-10.29-2.7-15.42
		c-1.4-7.74-2.7-15.5-4.9-23.52c-0.82,1.39-0.54,2.52-0.49,3.56c0.54,11.7-0.22,23.41-0.06,35.11c0.06,4.26-3.22,2.92-5.21,3.25
		c-2.05,0.33-3.59-0.58-3.56-3.3c0.21-20.05,0.32-40.09-0.4-60.13c-0.08-2.28,0.77-2.98,2.96-2.99c10.57-0.01,8.65-0.94,10.5,8.06
		c2.42,11.8,4.86,23.6,7.29,35.4C151.52,275.24,151.76,275.24,152,275.24z"/>
	<path class="st1" d="M217.23,271.53c0.62-10.45-0.75-20.92-0.19-31.4c0.08-1.49,0.18-3,0.02-4.48c-0.31-3.02,0.97-3.9,3.9-3.77
		c4.7,0.21,4.79,0.11,4.8,4.96c0.01,11.37-0.01,22.75,0.01,34.12c0.01,7.61-0.03,15.22,0.17,22.82c0.08,2.97-1.02,4.01-3.89,3.99
		c-5.21-0.03-5.81-0.3-7.01-5.2c-3.14-12.81-6.2-25.64-9.3-38.46c-0.22-0.89-0.51-1.76-1.28-2.58c0,2.05-0.01,4.11,0,6.16
		c0.08,11.05,0.16,22.11,0.25,33.16c0,0.53,0,1.06,0.07,1.58c0.79,5.35-1.76,7.52-6.84,5.79c-1.67-0.57-1.76-1.96-1.77-3.41
		c-0.03-7.08,0.04-14.17-0.14-21.25c-0.33-12.65-0.58-25.3-0.52-37.95c0.01-2.58,1.08-3.48,3.36-3.59c0.32-0.02,0.64-0.02,0.97-0.03
		c7.53-0.19,7.49-0.18,9.23,7.14c2.52,10.58,5.11,21.14,7.66,31.71C216.8,271.16,216.78,271.5,217.23,271.53z"/>
	<path class="st1" d="M468.02,251.47c0.01,14.17-1.06,28.22,0.05,42.25c0.18,2.31,0.26,4.58-3.24,4.63c-5,0.08-5.56-0.16-5.6-4.19
		c-0.12-12.12,0.09-24.25-0.36-36.36c-0.27-7.41-0.07-14.8-0.3-22.2c-0.08-2.61,1.11-3.46,3.37-3.57c0.32-0.02,0.64-0.02,0.97-0.02
		c7.51-0.18,7.46-0.17,9.21,7.16c2.5,10.47,5.08,20.93,7.62,31.39c0.09,0.39-0.02,0.87,0.54,1.01c0.61-10.49-0.75-20.97-0.19-31.46
		c0.07-1.38,0.17-2.79,0.03-4.15c-0.32-3,0.68-4.25,3.92-4.08c4.68,0.25,4.77,0.11,4.78,4.99c0.01,12.02,0,24.04,0.02,36.06
		c0.01,7.07-0.01,14.14,0.15,21.21c0.06,2.68-1.03,3.6-3.58,3.64c-5.43,0.1-6.15-0.29-7.42-5.52c-3.1-12.71-6.13-25.44-9.2-38.15
		C468.57,253.21,468.28,252.34,468.02,251.47z"/>
	<path class="st1" d="M342.35,293.97c-1.09-2.98-2.26-5.93-3.41-8.88c-1.74-4.47-3.46-8.94-5.25-13.38
		c-0.6-1.48-0.54-2.46,0.96-3.49c2.76-1.87,4.4-4.65,5.17-7.87c1.32-5.61,1.21-11.34,0.32-16.92c-1.33-8.3-5.47-11.42-13.95-11.43
		c-3.22,0-6.45,0.08-9.67-0.02c-2.37-0.07-3.19,0.95-3.18,3.28c0.1,18.61,0.18,37.22,0.14,55.84c-0.03,8.76,0.18,7.07,7.35,6.79
		c1.29-0.05,1.82-0.33,1.86-1.84c0.13-5.07,0.56-10.12,0.27-15.21c-0.19-3.42-0.03-6.85-0.03-10.28c0.33-0.02,0.66-0.04,0.99-0.06
		c3.39,6.93,4.67,14.58,7.36,21.75c2.2,5.87,2.1,5.91,8.37,5.34c0.11-0.01,0.21-0.01,0.32-0.01
		C342.45,297.48,343.16,296.17,342.35,293.97z M330.88,257.7c-0.25,2.53-3,4.26-6.24,3.94c-2.64-0.27-2.08-2.4-2.18-4.08
		c-0.06-0.85-0.01-1.71-0.01-2.56h-0.55c0-3.51-0.11-7.02,0.05-10.52c0.06-1.24-0.95-3.23,1.39-3.59c2.53-0.39,5.22-0.87,6.74,2.03
		c1.11,2.13,1.28,4.53,1.28,6.87C331.36,252.42,331.14,255.07,330.88,257.7z"/>
	<path class="st1" d="M123.78,245.24c-0.24-8.96-4.57-12.96-13.49-13.38c-3.75-0.18-7.51,0.04-11.27-0.07
		c-2.51-0.07-3.32,0.92-3.29,3.44c0.12,9.87,0.05,19.75,0.05,29.63h0.38c0,9.99,0.07,19.98-0.05,29.96
		c-0.02,2.43,0.81,3.25,3.17,3.16c3.43-0.14,6.87-0.15,10.3-0.02c8.81,0.33,14.1-5.12,14.29-13.77
		C124.16,271.21,124.12,258.21,123.78,245.24z M114.29,283.76c-0.76,4.62-2.68,6.05-7.29,5.42c-1.71-0.24-1.66-1.29-1.64-2.52
		c0.12-7.49,0.21-14.97-0.11-22.46c-0.27-6.53-0.13-13.08,0.02-19.61c0.04-1.39-1.3-3.63,1.44-4.13c3.55-0.65,6.38,0.57,7.15,3.2
		c0.42,1.41,0.5,2.95,0.52,4.43c0.06,5.04,0.02,10.08,0.02,12.7C114.24,270.06,115.41,276.9,114.29,283.76z"/>
	<path class="st1" d="M451.96,257.45c0-3.75,0.09-7.5-0.02-11.25c-0.21-7.04-3.3-11.69-8.62-13.74c-1.37-0.52-2.65-0.02-3.91-0.38
		c-4.97-1.43-9.59,0.34-12.56,4.43c-2.53,3.47-2.79,7.31-2.63,11.3c0.21,5.43,0.43,10.88,0.48,16.3c0.06,7.88-0.81,15.8,0.43,23.62
		c1.17,7.42,7.09,11.22,15.71,10.68c6.4-0.41,11.1-5.42,11.28-12.55C452.34,276.39,451.62,266.92,451.96,257.45z M443.01,284.18
		c-0.04,3.61-1.8,5.5-4.81,5.51c-2.51,0-3.92-1.9-4.5-5.26c-1-5.78,0.09-11.5,0.18-17.24c0.1-6.57,0.04-13.13-0.69-19.67
		c-0.49-4.44,1.24-7.15,4.82-7.19c2.89-0.04,4.21,1.41,4.45,4.94c0.27,3.83,0.72,7.65,0.62,11.5
		C441.93,265.91,443.11,275.04,443.01,284.18z"/>
	<path class="st1" d="M91.13,293.69c-2.88-18.72-5.74-37.45-8.66-56.16c-0.93-5.96-1-5.95-7.51-5.95c-0.75,0-1.51,0.07-2.25-0.01
		c-3.17-0.34-5.12,0.52-5.16,4.23c-0.03,2.43-0.71,4.86-1.04,7.3c-1.47,10.71-2.9,21.42-4.38,32.13
		c-0.91,6.57-1.86,13.14-2.81,19.71c-0.14,0.98-0.36,2.12,0.65,2.6c2.22,1.05,4.61,0.74,6.93,0.3c1.92-0.36,1.43-2.16,1.71-3.41
		c0.44-1.98,0.79-3.99,1.04-6c0.95-7.85,0.93-7.79,8.83-7.45c1.73,0.08,2.12,0.71,2.24,2.28c0.29,3.84,0.71,7.68,1.23,11.5
		c0.42,3.22,2.53,4.11,7.19,3.35C92.12,297.63,91.42,295.58,91.13,293.69z M75.7,272.62c-4.57-0.26-4.47-0.04-3.83-4.64
		c0.89-6.44,1.59-12.92,2.39-19.38c0.13-1.12-0.16-2.38,1-3.21c1.14,7.96,2.2,15.89,3.43,23.8
		C79.08,271.75,78.62,272.79,75.7,272.62z"/>
	<path class="st1" d="M376.31,293.45c-2.89-18.39-5.77-36.78-8.7-55.16c-1.16-7.33,0.26-6.65-7.4-6.71h-1.94
		c-4.85,0-4.89,0-5.57,4.77c-1.47,10.17-2.88,20.34-4.34,30.52c-1.28,9-2.61,18-3.87,27c-0.25,1.78-0.69,3.73,2.04,4.23
		c4.05,0.73,6.55-0.06,7-2.63c0.73-4.11,1.27-8.25,1.81-12.38c0.16-1.16,0.25-2.25,1.78-2.05c2.83,0.38,5.85-1.02,8.49,0.9
		c0.22,0.16,0.07,0.82,0.11,1.24c0.42,3.84,0.79,7.68,1.27,11.51c0.4,3.24,2.47,4.16,7.22,3.43
		C377.38,297.63,376.62,295.44,376.31,293.45z M360.82,272.56c-0.3-0.06-0.65-0.06-0.95,0c-3.14,0.6-3.39-0.84-2.99-3.54
		c1.18-8.11,2.07-16.27,3.07-24.41c0.12,0.01,0.24,0.01,0.36,0.02c1.14,8.19,2.23,16.4,3.45,24.58
		C364.13,271.69,363.73,273.12,360.82,272.56z"/>
	<path class="st1" d="M262.32,231.34c9.5-0.64,15.33,6.14,14.39,15.79c-0.13,1.33-0.78,1.9-2.09,1.79
		c-0.64-0.05-1.28-0.12-1.91-0.09c-4.63,0.16-4.63,0.17-5.05-4.46c-0.27-3.01-2.61-4.99-5.42-4.56c-2.78,0.42-4.77,3.53-4.11,6.58
		c0.71,3.29,2.37,6.15,4.16,8.95c4.3,6.75,9.38,13.02,12.34,20.58c1.56,3.99,2.06,8.03,1.35,12.25c-1,5.95-5.53,10.08-11.33,10.28
		c-8.17,0.29-13.43-3.26-15-10.11c-0.12-0.52-0.16-1.06-0.28-1.58c-1.51-6.96-0.69-7.89,6.29-7.78c2.27,0.04,3.11,0.95,3,3.09
		c-0.08,1.61-0.03,3.23,0.6,4.76c0.97,2.35,2.89,2.98,5.21,2.74c2.37-0.25,3.12-1.82,3.34-3.99c0.28-2.71-0.67-5.04-1.83-7.35
		c-2.77-5.45-6.24-10.47-9.69-15.49c-3.19-4.63-5.45-9.69-6.42-15.24c-1.23-7.05,2.34-13.69,8.18-15.71
		C259.74,231.19,261.44,231.46,262.32,231.34z"/>
	<path class="st1" d="M394.33,270.14c0,8.21-0.03,16.42,0.03,24.64c0.01,1.71-0.52,2.38-2.31,2.59c-7.96,0.97-7.05,1.66-7.06-6.57
		c-0.01-6.66-0.46-13.32-0.41-19.96c0.06-7.74-0.72-15.49,0.38-23.23c0.24-1.66-0.27-3.42-0.26-5.13c0-1.45-0.65-1.86-1.98-1.78
		c-0.85,0.05-1.71-0.14-2.56-0.16c-1.65-0.02-3.98,1.07-4.7-0.7c-0.73-1.83-0.31-4.18-0.13-6.29c0.1-1.19,1.43-1.28,2.31-1.31
		c7.73-0.27,15.45-0.47,23.18-0.63c2-0.04,2.86,1.12,2.72,3.09c-0.07,1.06-0.1,2.13-0.14,3.19c-0.08,1.7-0.94,2.53-2.66,2.47
		c-0.97-0.03-1.93-0.01-2.9-0.01c-3.94,0-4.37,0.54-4.33,4.4c0.07,8.46,0.02,16.93,0.02,25.39
		C393.79,270.14,394.06,270.14,394.33,270.14z"/>
	<path class="st1" d="M299.2,265.82c0.12,9.65-0.05,19.31,0.62,28.94c0.12,1.8-0.62,2.41-2.32,2.6c-7.49,0.83-7.2,2.12-7.28-6.44
		c-0.09-10.71-0.28-21.42-0.34-32.14c-0.02-5.23,0.11-10.47,0.3-15.7c0.07-1.82-0.51-2.58-2.36-2.39c-0.73,0.07-1.49-0.16-2.24-0.16
		c-5.13-0.05-4.98-0.04-5.09-5.03c-0.05-2.24,0.71-3.26,2.8-3.32c7.61-0.23,15.23-0.43,22.84-0.6c2-0.05,2.95,0.98,2.75,3.03
		c-0.08,0.85-0.15,1.72-0.09,2.57c0.19,2.41-0.99,3.17-3.27,3.2c-6.45,0.1-6.41,0.16-6.36,6.76
		C299.24,253.38,299.2,259.6,299.2,265.82z"/>
	<path class="st1" d="M188.34,265c0,9.55-0.14,19.1,0.08,28.65c0.07,3.18-0.85,4.43-4.06,4.55c-4.81,0.18-5.43-0.23-5.44-4.98
		c-0.01-14.14,0-28.28-0.02-42.42c-0.01-5.12,0.01-10.24-0.14-15.36c-0.07-2.38,0.56-3.53,3.22-3.54c6.53-0.02,6.41-0.13,6.32,6.38
		c-0.12,8.9-0.03,17.81-0.03,26.72C188.3,265,188.32,265,188.34,265z"/>
	<path class="st1" d="M242.59,264.8c0,9.95-0.06,19.91,0.04,29.86c0.02,2.32-0.76,3.41-3.08,3.4c-0.86,0-1.71,0.08-2.57,0.18
		c-2.64,0.3-3.61-0.88-3.6-3.5c0.07-10.06,0.02-20.13-0.03-30.19c-0.04-9.85-0.11-19.7-0.23-29.54c-0.03-2.12,0.65-3.13,2.95-3.09
		c7.71,0.12,6.43-0.62,6.43,6.18c0.01,8.9,0,17.8,0,26.7C242.55,264.8,242.57,264.8,242.59,264.8z"/>
	<path class="st1" d="M417.32,265.04c0,9.95-0.03,19.91,0.03,29.86c0.01,1.95-0.57,3.08-2.67,3.11c-0.86,0.01-1.71,0.11-2.56,0.22
		c-2.85,0.37-4.05-0.72-4.02-3.74c0.11-10.17,0.04-20.34,0-30.51c-0.04-9.63-0.1-19.27-0.22-28.9c-0.03-2.07,0.5-3.2,2.86-3.17
		c7.91,0.11,6.49-0.63,6.5,6.42c0.02,8.9,0,17.8,0,26.7C417.27,265.04,417.3,265.04,417.32,265.04z"/>
</g>
</svg>
