<?xml version="1.0" encoding="utf-8"?>
<!-- Generator: Adobe Illustrator 26.3.1, SVG Export Plug-In . SVG Version: 6.00 Build 0)  -->
<svg version="1.1" id="Layer_1" xmlns="http://www.w3.org/2000/svg" xmlns:xlink="http://www.w3.org/1999/xlink" x="0px" y="0px"
	 viewBox="0 0 548.2 357.3" style="enable-background:new 0 0 548.2 357.3;" xml:space="preserve">
<style type="text/css">
	.st0{fill:#1E1E1E;}
	.st1{fill:#FAFAF9;}
</style>
<path class="st0" d="M484,357.3H64.2C28.7,357.3,0,328.5,0,293.1V64.2C0,28.7,28.7,0,64.2,0H484c35.5,0,64.2,28.7,64.2,64.2v228.9
	C548.2,328.5,519.4,357.3,484,357.3z"/>
<g>
	<path class="st1" d="M155.1,170.7c0,9.7,0,19.3,0,29c0,4.8-0.6,5.3-5.4,5.3c-3.5,0-7.1,0-10.6,0c-2.7,0-4.3-1.3-4.3-4
		c0-17.2-0.9-34.4-0.4-51.7c0.1-6.3-0.5-12.8-0.4-19.2c0.2-14.4,0-28.7,0.3-43.1c0.2-7.2,0-14.4,0-21.7c0-4.3,1.2-5.8,5.5-6.2
		c3.2-0.3,6.4-0.2,9.6,0.1c3.1,0.3,4.8,2,4.7,5c-0.3,6.9-0.1,13.9-0.1,20.8c-0.1,8.6-0.1,17.2,0.5,25.7c0.2,2.2-0.7,4.2-0.3,6.3
		c0.3,1.4,0.5,2.5,2.2,2.5c5.5,0.2,11,0.3,16.6,0.7c2.1,0.1,2.7-0.5,2.6-2.7c-0.1-16.4-0.1-32.9-0.2-49.3c0-0.9,0-1.7,0-2.6
		c0.1-5.4,1.1-6.4,6.5-6.3c3.1,0,6.2-0.1,9.3,0.3c3.5,0.4,4.9,2.1,4.9,5.6c0,13.5-0.1,27.1-0.1,40.6c0,3.1,0.4,6.3-0.2,9.3
		c-1.1,4.9-0.9,10.1-0.5,14.7c1.1,14-0.4,28,0.7,42c0.5,6-0.2,12-0.2,18c0,2.6-0.3,5.4,0.2,8.1c1.2,6.1-1.9,9-8.7,7.9
		c-1.7-0.3-3.2-0.3-5,0c-4.6,0.8-6.9-1.5-6.9-6c0.1-19.4,0.1-38.9,0.2-58.3c0-2.1-0.6-2.8-2.7-2.7c-5.5,0.1-11,0-16.4-0.2
		c-2.1-0.1-2.4,0.7-2.4,2.6c0.1,9.9,0,19.8,0,29.6C154.5,170.7,154.8,170.7,155.1,170.7z"/>
	<path class="st1" d="M378.6,196.8c-3.2-21.5-6.6-43-9.9-64.4c-3.6-23.1-7.2-46.1-10.8-69.2c-0.5-3.4-1.8-4.6-5.4-4.7
		c-3.1,0-6.2,0-9.3,0c-3.3,0-6.7,0-10,0c-3,0.1-5,1.4-5.4,4.7c-2.4,17.3-4.9,34.6-7.2,51.9c-1.5,11-2.5,22.2-4.2,33.1
		c-2.6,17.2-5.2,34.5-7.9,51.7c-0.4,2.7,1.3,4.9,4.1,5c3.8,0.1,7.5,0,11.3,0c2.3,0,3.5-1,3.9-3.3c0.5-3.4,1.4-6.7,1.9-10.1
		c1-7,1.8-14,2.8-21c0.2-1.2-0.4-3.2,2.1-3.1c6.5,0.1,13,0.1,19.5,0c1.4,0,1.9,0.5,2,1.8c0.4,4.7,0.9,9.4,1.4,14.1
		c0.6,5.6,0.8,11.4,2,16.9c0.9,3.8,2.2,4.7,6,4.8c2,0,4.1,0,6.1,0C379,204.9,379.7,204.2,378.6,196.8z M349.7,149.2
		c-4.2-0.2-8.4-0.1-12.5,0c-2,0.1-2.6-0.6-2.4-2.6c2.1-16.6,4.2-33.1,6.2-49.7c0.5-4.4,1-8.8,1.5-13.2c0.4,0,0.7,0,1.1,0.1
		c1.1,7.9,2.3,15.8,3.4,23.7c1.7,12.1,3.3,24.1,5,36.2c0.1,0.9,0,1.7,0.2,2.6C352.7,148.4,352.1,149.3,349.7,149.2z"/>
	<path class="st1" d="M449.9,82.2c-1.5-9.1-6.6-16.1-15.7-19.5c-7.9-2.9-16.2-2.7-24.4-2.9h-14.5c-2.6,0-4.3,1-4.3,3.9
		c-0.2,9.1-0.5,18.2-0.6,27.3c-0.3,28.3,0.1,56.6-0.7,85c-0.2,7.9,0,15.9,0.1,23.8c0,2.8,0.8,4.3,3.5,4.7c4,0.6,7.9,0.4,11.9,0.2
		c2-0.1,4.6-0.3,2.6-3.6c-0.3-0.4-0.2-1,0.4-1.4c2-1.4,1-2.9,0.3-4.5c-0.2-0.4-1.3-1.3-0.2-1.3c2.5-0.1,1.3-1.8,1.4-2.7
		c0.5-9.1-0.8-18.1-0.2-27.1c0.4-5.8,0.1-11.6,0-17.4c0-1.7,0.2-2.6,2.2-2.4c2.9,0.2,5.8,0.1,8.7,0.1c14.4,0,23.3-6.3,27.2-18
		C452.4,111.9,452.3,97,449.9,82.2z M431.5,102.4c-0.2,5.1,0.3,10.5-1.3,15.9c-0.8,2.8-2.3,4.7-4.8,6c-4.8,2.4-9.8,1.5-14.8,1.3
		c-1.6-0.1-1.1-1.3-1.1-2.2c0.2-13.7,0.5-27.5,0.7-41.2c0-4.1,0.8-5,5.3-4c1.8,0.4,3.6,0.4,5.4,0.4c4.9,0.1,7.4,1.9,9.1,6.6
		C432.1,90.6,431.4,96.4,431.5,102.4z"/>
	<path class="st1" d="M217.1,178c-1.7-0.9-2.4-1.9-2.4-3.4c-0.1-6.2-0.7-12.4-0.5-18.5c0.3-9.2,0.1-18.4-0.1-27.6
		c-0.3-14.4,0.5-28.9-0.5-43.3c-0.4-6.1-1.6-12.1-1.4-18.2c0.1-2.2-0.1-4.6,2.2-5.6c2.4-1,5.1-2.3,7.8-0.3c0.3,0.2,0.7,0.9,0.9,0.3
		c0.7-2.8,2.9-1.3,4.3-1.3c10.4-0.2,20.8-0.3,31.2-0.4c4.7,0,5.9,1.1,5.9,5.9c0,2.7,0.1,5.4-0.1,8.1c-0.2,2.8-1.5,4.5-4.7,4.5
		c-7.8,0.1-15.7,0.3-23.5,0.5c-2.8,0.1-5.1,2.6-4.6,5.3c2.1,10.8,2.2,21.7,1.9,32.6c-0.1,2.8,0.7,3.5,3.4,3.4
		c5.4-0.3,10.7-0.4,16.1-0.5c4,0,5.6,1.7,5.7,5.7c0.1,2.6,0,5.1,0,7.7c0,3.4-1.5,5.1-4.8,5.2c-3.6,0.1-7.3,0.3-10.9-0.2
		c-2.5-0.3-5.1,0.3-7.6,0.5c-2.1,0.2-1.9,3-1.4,4.2c1.2,3.1-1.1,6.1,0.2,9.1c0.1,0.3-0.2,0.8-0.4,1.1c-0.5,0.6-1.9-0.4-2,1
		c-0.1,1.7,1.4,0.3,1.8,0.9c0.1,0.2,0.4,0.4,0.4,0.5c-3,3.5,1.3,6.8,0.3,10.3c-1.8,6,1,11.8,0.4,17.8c-0.2,2.4,0.6,3.2,3,3
		c8.1-0.7,16.1-0.2,24.2,0c3.6,0.1,6.5,4.4,5.1,7.8c-0.1,0.3-0.4,0.5-0.6,0.7c-0.6,0.4-1.6-1.5-1.8,0.3c-0.1,1,1.1,1.1,1.9,1.3
		c0.2,0.1,0.5,0.2,0.5,0.4c0,2.1-1,4.1-0.8,6.3c0.1,0.7-1.8,1.3-3,1.5c-1.8,0.2-3.6,0.2-5.5,0.2c-12.2,0-24.5,0-36.8,0
		c-5.1,0-6.1-1.2-6.1-6.3c0-5.8,0-11.7,0-17.5C214.7,179.2,214.4,177.5,217.1,178z"/>
	<path class="st1" d="M99.6,86.1c1.5,1.1,1.8,2.6,1.8,4.4c0,9.8,0.1,19.5,0.3,29.3c0.1,7.7,0.9,15.4-0.3,23.1
		c-0.2,1,1.6,2.5-0.9,2.8c0,0-0.1,0.3,0,0.4c1.7,3.9,2.1,8.7,0.9,12.4c-0.2,0.7-0.5,1.4-0.1,2.1c1.1,2.2,1.2,4.7,0.7,6.9
		c-0.8,3.2,0.2,6.4-0.4,9.7c-0.4,2.2,0.4,5,0.7,7.5c0.5,4.8-0.2,9.5,0.3,14.2c0.4,4-1,5.1-5.1,4.4c-1.7-0.3-3,0.1-4.5,0.8
		c-2.2,1.1-4.8,1-7.2,0.4c-1.5-0.4-2.6-1.4-2.7-3.4c-0.4-4.7-1.1-9.6-0.2-14.1c0.5-3,0.1-5.7,0.1-8.5c0-6-0.7-11.9-0.6-17.8
		c0.1-5.7,0.6-11.4-0.4-17.1c-0.4-2.3,1.7-4,1.1-6.3c-1.4-4.7-1.1-9.6-1-14.4c0.1-5,0.5-10.1,0.4-15.1c-0.3-9.5,1.1-18.9,0-28.4
		c-0.2-1.6-0.9-1.6-2.1-1.6c-5,0-10,0-15,0c-4,0-4.7-1-4.4-4.8c0.2-3.2,0.8-6.3,0.2-9.5c-0.3-1.7,1.3-2.5,2.8-3
		c3.6-1.2,7.5-0.9,11.2-1c14.4-0.6,28.7-1.1,43.1-0.9c4,0.1,5,1.4,4.7,5.4c-0.2,2.6-0.2,5.3-0.2,8c0.1,3.6-1.2,5.1-4.8,5.2
		c-4.5,0.1-9,0.1-13.5,0c-2.1-0.1-2.5,0.6-2.5,2.6C101.9,84.4,101.8,84.4,99.6,86.1z"/>
	<path class="st1" d="M463.7,150.1c0.3-8.6,0.3-17.2,0.2-25.7c0-9.4,0-18.9-0.2-28.3c0-1-1.1-3.3,1.8-2.4c0.2,0.1,0.9-0.5,0.5-0.9
		c-3.2-3.1-2.4-7.2-2.5-10.9c-0.1-6,0.2-12-0.1-18c-0.1-2.9,1.4-4.4,4.2-4.5c3.8-0.1,7.5-0.1,11.3,0c3.3,0.1,4.5,1.4,4.7,4.8
		c0.4,6-0.8,12-0.5,18c0.4,9.4,0.4,18.9,0.7,28.3c0.6,22.3,0,44.7-0.4,67c-0.1,7.1,0.2,14.1,0.2,21.2c0,4.9-1.4,6.3-6.3,6.4
		c-3,0.1-6-0.2-9,0.1c-2.6,0.3-3.5-1-3.9-3.1c-0.4-1.7-0.6-3.4-0.6-5.1c0-4.9-0.2-9.8-0.1-14.6C463.9,171.5,463.4,160.8,463.7,150.1
		z"/>
	<path class="st1" d="M152,275.2c1.2-7.5,2.3-14.9,3.5-22.4c1-6.2,2.2-12.4,3.1-18.7c0.3-1.9,1.2-2.5,3-2.5
		c11.2,0.1,9.4-1.1,9.2,8.8c-0.2,17.7,1.1,35.4,0.8,53.2c0,3-0.6,4.3-3.9,4.2c-4.6-0.2-5.1-0.2-5-4.1c0.5-10.8-0.1-21.6-0.3-32.4
		c0-1,0.2-2-0.8-3.8c-0.9,5.1-1.6,9.3-2.4,13.5c-1.5,8.3-3.1,16.6-4.5,24.8c-0.3,1.8-1.6,2.1-3.1,2.2c-2.1,0.1-3.6-0.7-3.9-2.9
		c-0.9-5.1-1.8-10.3-2.7-15.4c-1.4-7.7-2.7-15.5-4.9-23.5c-0.8,1.4-0.5,2.5-0.5,3.6c0.5,11.7-0.2,23.4-0.1,35.1
		c0.1,4.3-3.2,2.9-5.2,3.2c-2.1,0.3-3.6-0.6-3.6-3.3c0.2-20,0.3-40.1-0.4-60.1c-0.1-2.3,0.8-3,3-3c10.6,0,8.6-0.9,10.5,8.1
		c2.4,11.8,4.9,23.6,7.3,35.4C151.5,275.2,151.8,275.2,152,275.2z"/>
	<path class="st1" d="M217.2,271.5c0.6-10.5-0.8-20.9-0.2-31.4c0.1-1.5,0.2-3,0-4.5c-0.3-3,1-3.9,3.9-3.8c4.7,0.2,4.8,0.1,4.8,5
		c0,11.4,0,22.8,0,34.1c0,7.6,0,15.2,0.2,22.8c0.1,3-1,4-3.9,4c-5.2,0-5.8-0.3-7-5.2c-3.1-12.8-6.2-25.6-9.3-38.5
		c-0.2-0.9-0.5-1.8-1.3-2.6c0,2.1,0,4.1,0,6.2c0.1,11,0.2,22.1,0.2,33.2c0,0.5,0,1.1,0.1,1.6c0.8,5.4-1.8,7.5-6.8,5.8
		c-1.7-0.6-1.8-2-1.8-3.4c0-7.1,0-14.2-0.1-21.2c-0.3-12.6-0.6-25.3-0.5-37.9c0-2.6,1.1-3.5,3.4-3.6c0.3,0,0.6,0,1,0
		c7.5-0.2,7.5-0.2,9.2,7.1c2.5,10.6,5.1,21.1,7.7,31.7C216.8,271.2,216.8,271.5,217.2,271.5z"/>
	<path class="st1" d="M468,251.5c0,14.2-1.1,28.2,0,42.2c0.2,2.3,0.3,4.6-3.2,4.6c-5,0.1-5.6-0.2-5.6-4.2
		c-0.1-12.1,0.1-24.2-0.4-36.4c-0.3-7.4-0.1-14.8-0.3-22.2c-0.1-2.6,1.1-3.5,3.4-3.6c0.3,0,0.6,0,1,0c7.5-0.2,7.5-0.2,9.2,7.2
		c2.5,10.5,5.1,20.9,7.6,31.4c0.1,0.4,0,0.9,0.5,1c0.6-10.5-0.8-21-0.2-31.5c0.1-1.4,0.2-2.8,0-4.1c-0.3-3,0.7-4.2,3.9-4.1
		c4.7,0.2,4.8,0.1,4.8,5c0,12,0,24,0,36.1c0,7.1,0,14.1,0.1,21.2c0.1,2.7-1,3.6-3.6,3.6c-5.4,0.1-6.1-0.3-7.4-5.5
		c-3.1-12.7-6.1-25.4-9.2-38.1C468.6,253.2,468.3,252.3,468,251.5z"/>
	<path class="st1" d="M342.4,294c-1.1-3-2.3-5.9-3.4-8.9c-1.7-4.5-3.5-8.9-5.2-13.4c-0.6-1.5-0.5-2.5,1-3.5c2.8-1.9,4.4-4.6,5.2-7.9
		c1.3-5.6,1.2-11.3,0.3-16.9c-1.3-8.3-5.5-11.4-14-11.4c-3.2,0-6.5,0.1-9.7,0c-2.4-0.1-3.2,0.9-3.2,3.3c0.1,18.6,0.2,37.2,0.1,55.8
		c0,8.8,0.2,7.1,7.4,6.8c1.3,0,1.8-0.3,1.9-1.8c0.1-5.1,0.6-10.1,0.3-15.2c-0.2-3.4,0-6.9,0-10.3c0.3,0,0.7,0,1-0.1
		c3.4,6.9,4.7,14.6,7.4,21.8c2.2,5.9,2.1,5.9,8.4,5.3c0.1,0,0.2,0,0.3,0C342.5,297.5,343.2,296.2,342.4,294z M330.9,257.7
		c-0.2,2.5-3,4.3-6.2,3.9c-2.6-0.3-2.1-2.4-2.2-4.1c-0.1-0.9,0-1.7,0-2.6H322c0-3.5-0.1-7,0-10.5c0.1-1.2-1-3.2,1.4-3.6
		c2.5-0.4,5.2-0.9,6.7,2c1.1,2.1,1.3,4.5,1.3,6.9C331.4,252.4,331.1,255.1,330.9,257.7z"/>
	<path class="st1" d="M123.8,245.2c-0.2-9-4.6-13-13.5-13.4c-3.8-0.2-7.5,0-11.3-0.1c-2.5-0.1-3.3,0.9-3.3,3.4
		c0.1,9.9,0.1,19.8,0.1,29.6h0.4c0,10,0.1,20-0.1,30c0,2.4,0.8,3.2,3.2,3.2c3.4-0.1,6.9-0.1,10.3,0c8.8,0.3,14.1-5.1,14.3-13.8
		C124.2,271.2,124.1,258.2,123.8,245.2z M114.3,283.8c-0.8,4.6-2.7,6-7.3,5.4c-1.7-0.2-1.7-1.3-1.6-2.5c0.1-7.5,0.2-15-0.1-22.5
		c-0.3-6.5-0.1-13.1,0-19.6c0-1.4-1.3-3.6,1.4-4.1c3.6-0.6,6.4,0.6,7.2,3.2c0.4,1.4,0.5,2.9,0.5,4.4c0.1,5,0,10.1,0,12.7
		C114.2,270.1,115.4,276.9,114.3,283.8z"/>
	<path class="st1" d="M452,257.5c0-3.8,0.1-7.5,0-11.2c-0.2-7-3.3-11.7-8.6-13.7c-1.4-0.5-2.6,0-3.9-0.4c-5-1.4-9.6,0.3-12.6,4.4
		c-2.5,3.5-2.8,7.3-2.6,11.3c0.2,5.4,0.4,10.9,0.5,16.3c0.1,7.9-0.8,15.8,0.4,23.6c1.2,7.4,7.1,11.2,15.7,10.7
		c6.4-0.4,11.1-5.4,11.3-12.5C452.3,276.4,451.6,266.9,452,257.5z M443,284.2c0,3.6-1.8,5.5-4.8,5.5c-2.5,0-3.9-1.9-4.5-5.3
		c-1-5.8,0.1-11.5,0.2-17.2c0.1-6.6,0-13.1-0.7-19.7c-0.5-4.4,1.2-7.1,4.8-7.2c2.9,0,4.2,1.4,4.5,4.9c0.3,3.8,0.7,7.6,0.6,11.5
		C441.9,265.9,443.1,275,443,284.2z"/>
	<path class="st1" d="M91.1,293.7c-2.9-18.7-5.7-37.5-8.7-56.2c-0.9-6-1-5.9-7.5-5.9c-0.8,0-1.5,0.1-2.2,0c-3.2-0.3-5.1,0.5-5.2,4.2
		c0,2.4-0.7,4.9-1,7.3c-1.5,10.7-2.9,21.4-4.4,32.1c-0.9,6.6-1.9,13.1-2.8,19.7c-0.1,1-0.4,2.1,0.7,2.6c2.2,1,4.6,0.7,6.9,0.3
		c1.9-0.4,1.4-2.2,1.7-3.4c0.4-2,0.8-4,1-6c0.9-7.9,0.9-7.8,8.8-7.5c1.7,0.1,2.1,0.7,2.2,2.3c0.3,3.8,0.7,7.7,1.2,11.5
		c0.4,3.2,2.5,4.1,7.2,3.4C92.1,297.6,91.4,295.6,91.1,293.7z M75.7,272.6c-4.6-0.3-4.5,0-3.8-4.6c0.9-6.4,1.6-12.9,2.4-19.4
		c0.1-1.1-0.2-2.4,1-3.2c1.1,8,2.2,15.9,3.4,23.8C79.1,271.8,78.6,272.8,75.7,272.6z"/>
	<path class="st1" d="M376.3,293.5c-2.9-18.4-5.8-36.8-8.7-55.2c-1.2-7.3,0.3-6.6-7.4-6.7h-1.9c-4.9,0-4.9,0-5.6,4.8
		c-1.5,10.2-2.9,20.3-4.3,30.5c-1.3,9-2.6,18-3.9,27c-0.2,1.8-0.7,3.7,2,4.2c4,0.7,6.5-0.1,7-2.6c0.7-4.1,1.3-8.2,1.8-12.4
		c0.2-1.2,0.2-2.2,1.8-2c2.8,0.4,5.9-1,8.5,0.9c0.2,0.2,0.1,0.8,0.1,1.2c0.4,3.8,0.8,7.7,1.3,11.5c0.4,3.2,2.5,4.2,7.2,3.4
		C377.4,297.6,376.6,295.4,376.3,293.5z M360.8,272.6c-0.3-0.1-0.6-0.1-1,0c-3.1,0.6-3.4-0.8-3-3.5c1.2-8.1,2.1-16.3,3.1-24.4
		c0.1,0,0.2,0,0.4,0c1.1,8.2,2.2,16.4,3.5,24.6C364.1,271.7,363.7,273.1,360.8,272.6z"/>
	<path class="st1" d="M262.3,231.3c9.5-0.6,15.3,6.1,14.4,15.8c-0.1,1.3-0.8,1.9-2.1,1.8c-0.6-0.1-1.3-0.1-1.9-0.1
		c-4.6,0.2-4.6,0.2-5-4.5c-0.3-3-2.6-5-5.4-4.6s-4.8,3.5-4.1,6.6c0.7,3.3,2.4,6.1,4.2,8.9c4.3,6.7,9.4,13,12.3,20.6
		c1.6,4,2.1,8,1.4,12.2c-1,6-5.5,10.1-11.3,10.3c-8.2,0.3-13.4-3.3-15-10.1c-0.1-0.5-0.2-1.1-0.3-1.6c-1.5-7-0.7-7.9,6.3-7.8
		c2.3,0,3.1,1,3,3.1c-0.1,1.6,0,3.2,0.6,4.8c1,2.4,2.9,3,5.2,2.7c2.4-0.2,3.1-1.8,3.3-4c0.3-2.7-0.7-5-1.8-7.4
		c-2.8-5.5-6.2-10.5-9.7-15.5c-3.2-4.6-5.4-9.7-6.4-15.2c-1.2-7.1,2.3-13.7,8.2-15.7C259.7,231.2,261.4,231.5,262.3,231.3z"/>
	<path class="st1" d="M394.3,270.1c0,8.2,0,16.4,0,24.6c0,1.7-0.5,2.4-2.3,2.6c-8,1-7,1.7-7.1-6.6c0-6.7-0.5-13.3-0.4-20
		c0.1-7.7-0.7-15.5,0.4-23.2c0.2-1.7-0.3-3.4-0.3-5.1c0-1.4-0.6-1.9-2-1.8c-0.9,0.1-1.7-0.1-2.6-0.2c-1.6,0-4,1.1-4.7-0.7
		s-0.3-4.2-0.1-6.3c0.1-1.2,1.4-1.3,2.3-1.3c7.7-0.3,15.5-0.5,23.2-0.6c2,0,2.9,1.1,2.7,3.1c-0.1,1.1-0.1,2.1-0.1,3.2
		c-0.1,1.7-0.9,2.5-2.7,2.5c-1,0-1.9,0-2.9,0c-3.9,0-4.4,0.5-4.3,4.4c0.1,8.5,0,16.9,0,25.4C393.8,270.1,394.1,270.1,394.3,270.1z"
		/>
	<path class="st1" d="M299.2,265.8c0.1,9.6,0,19.3,0.6,28.9c0.1,1.8-0.6,2.4-2.3,2.6c-7.5,0.8-7.2,2.1-7.3-6.4
		c-0.1-10.7-0.3-21.4-0.3-32.1c0-5.2,0.1-10.5,0.3-15.7c0.1-1.8-0.5-2.6-2.4-2.4c-0.7,0.1-1.5-0.2-2.2-0.2c-5.1-0.1-5,0-5.1-5
		c0-2.2,0.7-3.3,2.8-3.3c7.6-0.2,15.2-0.4,22.8-0.6c2-0.1,3,1,2.8,3c-0.1,0.9-0.1,1.7-0.1,2.6c0.2,2.4-1,3.2-3.3,3.2
		c-6.5,0.1-6.4,0.2-6.4,6.8C299.2,253.4,299.2,259.6,299.2,265.8z"/>
	<path class="st1" d="M188.3,265c0,9.5-0.1,19.1,0.1,28.6c0.1,3.2-0.9,4.4-4.1,4.5c-4.8,0.2-5.4-0.2-5.4-5c0-14.1,0-28.3,0-42.4
		c0-5.1,0-10.2-0.1-15.4c-0.1-2.4,0.6-3.5,3.2-3.5c6.5,0,6.4-0.1,6.3,6.4C188.2,247.2,188.3,256.1,188.3,265L188.3,265z"/>
	<path class="st1" d="M242.6,264.8c0,10-0.1,19.9,0,29.9c0,2.3-0.8,3.4-3.1,3.4c-0.9,0-1.7,0.1-2.6,0.2c-2.6,0.3-3.6-0.9-3.6-3.5
		c0.1-10.1,0-20.1,0-30.2c0-9.9-0.1-19.7-0.2-29.5c0-2.1,0.6-3.1,2.9-3.1c7.7,0.1,6.4-0.6,6.4,6.2
		C242.5,247,242.5,255.9,242.6,264.8L242.6,264.8z"/>
	<path class="st1" d="M417.3,265c0,10,0,19.9,0,29.9c0,2-0.6,3.1-2.7,3.1c-0.9,0-1.7,0.1-2.6,0.2c-2.9,0.4-4-0.7-4-3.7
		c0.1-10.2,0-20.3,0-30.5c0-9.6-0.1-19.3-0.2-28.9c0-2.1,0.5-3.2,2.9-3.2c7.9,0.1,6.5-0.6,6.5,6.4
		C417.3,247.2,417.2,256.1,417.3,265L417.3,265z"/>
</g>
</svg>
